<mxfile host="app.diagrams.net" modified="2020-12-29T17:05:48.105Z" agent="5.0 (Macintosh; Intel Mac OS X 10_15_7) AppleWebKit/537.36 (KHTML, like Gecko) Chrome/87.0.4280.88 Safari/537.36" etag="dhYGqqaBpyCbwNbtaEhZ" version="14.1.3" type="github">
  <diagram id="eqcq6ZInVydyOzSL_FsZ" name="Page-1">
    <mxGraphModel dx="1482" dy="583" grid="0" gridSize="10" guides="1" tooltips="1" connect="1" arrows="1" fold="1" page="0" pageScale="1" pageWidth="850" pageHeight="1100" background="none" math="0" shadow="0">
      <root>
        <mxCell id="0" />
        <mxCell id="1" parent="0" />
        <mxCell id="x90DHJJXEx7O0RzBIi9N-1" value="" style="whiteSpace=wrap;html=1;aspect=fixed;sketch=1;" vertex="1" parent="1">
          <mxGeometry x="120" y="40" width="80" height="80" as="geometry" />
        </mxCell>
        <mxCell id="x90DHJJXEx7O0RzBIi9N-2" value="" style="whiteSpace=wrap;html=1;aspect=fixed;sketch=1;" vertex="1" parent="1">
          <mxGeometry x="320" y="40" width="80" height="80" as="geometry" />
        </mxCell>
        <mxCell id="x90DHJJXEx7O0RzBIi9N-3" value="" style="whiteSpace=wrap;html=1;aspect=fixed;sketch=1;" vertex="1" parent="1">
          <mxGeometry x="520" y="40" width="80" height="80" as="geometry" />
        </mxCell>
        <mxCell id="x90DHJJXEx7O0RzBIi9N-4" value="" style="whiteSpace=wrap;html=1;aspect=fixed;sketch=1;" vertex="1" parent="1">
          <mxGeometry x="710" y="40" width="80" height="80" as="geometry" />
        </mxCell>
        <mxCell id="x90DHJJXEx7O0RzBIi9N-5" value="" style="whiteSpace=wrap;html=1;aspect=fixed;sketch=1;" vertex="1" parent="1">
          <mxGeometry x="920" y="40" width="80" height="80" as="geometry" />
        </mxCell>
        <mxCell id="x90DHJJXEx7O0RzBIi9N-10" value="" style="edgeStyle=orthogonalEdgeStyle;rounded=0;sketch=1;orthogonalLoop=1;jettySize=auto;html=1;" edge="1" parent="1" source="x90DHJJXEx7O0RzBIi9N-6" target="x90DHJJXEx7O0RzBIi9N-9">
          <mxGeometry relative="1" as="geometry" />
        </mxCell>
        <mxCell id="x90DHJJXEx7O0RzBIi9N-70" style="edgeStyle=orthogonalEdgeStyle;rounded=0;sketch=1;orthogonalLoop=1;jettySize=auto;html=1;exitX=0.5;exitY=1;exitDx=0;exitDy=0;" edge="1" parent="1" source="x90DHJJXEx7O0RzBIi9N-6" target="x90DHJJXEx7O0RzBIi9N-27">
          <mxGeometry relative="1" as="geometry" />
        </mxCell>
        <mxCell id="x90DHJJXEx7O0RzBIi9N-6" value="卷积" style="rounded=1;whiteSpace=wrap;html=1;sketch=1;" vertex="1" parent="1">
          <mxGeometry x="160" y="265" width="70" height="40" as="geometry" />
        </mxCell>
        <mxCell id="x90DHJJXEx7O0RzBIi9N-21" value="" style="edgeStyle=orthogonalEdgeStyle;rounded=0;sketch=1;orthogonalLoop=1;jettySize=auto;html=1;" edge="1" parent="1" source="x90DHJJXEx7O0RzBIi9N-7" target="x90DHJJXEx7O0RzBIi9N-20">
          <mxGeometry relative="1" as="geometry" />
        </mxCell>
        <mxCell id="x90DHJJXEx7O0RzBIi9N-25" style="edgeStyle=orthogonalEdgeStyle;rounded=0;sketch=1;orthogonalLoop=1;jettySize=auto;html=1;exitX=1;exitY=0.5;exitDx=0;exitDy=0;entryX=0;entryY=0.5;entryDx=0;entryDy=0;" edge="1" parent="1" source="x90DHJJXEx7O0RzBIi9N-7" target="x90DHJJXEx7O0RzBIi9N-24">
          <mxGeometry relative="1" as="geometry" />
        </mxCell>
        <mxCell id="x90DHJJXEx7O0RzBIi9N-63" style="edgeStyle=orthogonalEdgeStyle;rounded=0;sketch=1;orthogonalLoop=1;jettySize=auto;html=1;entryX=0;entryY=0.5;entryDx=0;entryDy=0;" edge="1" parent="1" source="x90DHJJXEx7O0RzBIi9N-7" target="x90DHJJXEx7O0RzBIi9N-43">
          <mxGeometry relative="1" as="geometry" />
        </mxCell>
        <mxCell id="x90DHJJXEx7O0RzBIi9N-64" style="edgeStyle=orthogonalEdgeStyle;rounded=0;sketch=1;orthogonalLoop=1;jettySize=auto;html=1;exitX=1;exitY=0.5;exitDx=0;exitDy=0;entryX=0;entryY=0.5;entryDx=0;entryDy=0;" edge="1" parent="1" source="x90DHJJXEx7O0RzBIi9N-7" target="x90DHJJXEx7O0RzBIi9N-50">
          <mxGeometry relative="1" as="geometry" />
        </mxCell>
        <mxCell id="x90DHJJXEx7O0RzBIi9N-65" style="edgeStyle=orthogonalEdgeStyle;rounded=0;sketch=1;orthogonalLoop=1;jettySize=auto;html=1;exitX=1;exitY=0.5;exitDx=0;exitDy=0;entryX=0;entryY=0.5;entryDx=0;entryDy=0;" edge="1" parent="1" source="x90DHJJXEx7O0RzBIi9N-7" target="x90DHJJXEx7O0RzBIi9N-57">
          <mxGeometry relative="1" as="geometry" />
        </mxCell>
        <mxCell id="x90DHJJXEx7O0RzBIi9N-7" value="" style="ellipse;whiteSpace=wrap;html=1;aspect=fixed;sketch=1;" vertex="1" parent="1">
          <mxGeometry x="-180" y="270" width="30" height="30" as="geometry" />
        </mxCell>
        <mxCell id="x90DHJJXEx7O0RzBIi9N-12" value="" style="edgeStyle=orthogonalEdgeStyle;rounded=0;sketch=1;orthogonalLoop=1;jettySize=auto;html=1;" edge="1" parent="1" source="x90DHJJXEx7O0RzBIi9N-9" target="x90DHJJXEx7O0RzBIi9N-11">
          <mxGeometry relative="1" as="geometry" />
        </mxCell>
        <mxCell id="x90DHJJXEx7O0RzBIi9N-9" value="LSTM" style="rhombus;whiteSpace=wrap;html=1;rounded=1;sketch=1;" vertex="1" parent="1">
          <mxGeometry x="260" y="245" width="80" height="80" as="geometry" />
        </mxCell>
        <mxCell id="x90DHJJXEx7O0RzBIi9N-14" style="edgeStyle=orthogonalEdgeStyle;rounded=0;sketch=1;orthogonalLoop=1;jettySize=auto;html=1;entryX=0.053;entryY=0.514;entryDx=0;entryDy=0;entryPerimeter=0;" edge="1" parent="1" source="x90DHJJXEx7O0RzBIi9N-11" target="x90DHJJXEx7O0RzBIi9N-13">
          <mxGeometry relative="1" as="geometry" />
        </mxCell>
        <mxCell id="x90DHJJXEx7O0RzBIi9N-11" value="上采样" style="shape=hexagon;perimeter=hexagonPerimeter2;whiteSpace=wrap;html=1;fixedSize=1;rounded=1;sketch=1;" vertex="1" parent="1">
          <mxGeometry x="370" y="257.5" width="90" height="55" as="geometry" />
        </mxCell>
        <mxCell id="x90DHJJXEx7O0RzBIi9N-13" value="" style="ellipse;whiteSpace=wrap;html=1;aspect=fixed;sketch=1;" vertex="1" parent="1">
          <mxGeometry x="530" y="270" width="30" height="30" as="geometry" />
        </mxCell>
        <mxCell id="x90DHJJXEx7O0RzBIi9N-15" value="2*32*32" style="text;html=1;align=center;verticalAlign=middle;resizable=0;points=[];autosize=1;" vertex="1" parent="1">
          <mxGeometry x="470" y="257.5" width="60" height="20" as="geometry" />
        </mxCell>
        <mxCell id="x90DHJJXEx7O0RzBIi9N-16" value="(2,1,4,32,32)" style="text;html=1;align=center;verticalAlign=middle;resizable=0;points=[];autosize=1;" vertex="1" parent="1">
          <mxGeometry x="-150" y="257.5" width="80" height="20" as="geometry" />
        </mxCell>
        <mxCell id="x90DHJJXEx7O0RzBIi9N-22" style="edgeStyle=orthogonalEdgeStyle;rounded=0;sketch=1;orthogonalLoop=1;jettySize=auto;html=1;entryX=0;entryY=0.5;entryDx=0;entryDy=0;" edge="1" parent="1" source="x90DHJJXEx7O0RzBIi9N-20" target="x90DHJJXEx7O0RzBIi9N-6">
          <mxGeometry relative="1" as="geometry" />
        </mxCell>
        <mxCell id="x90DHJJXEx7O0RzBIi9N-20" value="Gather" style="triangle;whiteSpace=wrap;html=1;sketch=1;" vertex="1" parent="1">
          <mxGeometry x="-70" y="252.5" width="45" height="65" as="geometry" />
        </mxCell>
        <mxCell id="x90DHJJXEx7O0RzBIi9N-23" value="(2, 1, 4, 32, 32, 1, 4, 32, 32)" style="text;html=1;align=center;verticalAlign=middle;resizable=0;points=[];autosize=1;" vertex="1" parent="1">
          <mxGeometry x="-20" y="257.5" width="160" height="20" as="geometry" />
        </mxCell>
        <mxCell id="x90DHJJXEx7O0RzBIi9N-34" style="edgeStyle=orthogonalEdgeStyle;rounded=0;sketch=1;orthogonalLoop=1;jettySize=auto;html=1;entryX=0;entryY=0.5;entryDx=0;entryDy=0;" edge="1" parent="1" source="x90DHJJXEx7O0RzBIi9N-24" target="x90DHJJXEx7O0RzBIi9N-27">
          <mxGeometry relative="1" as="geometry" />
        </mxCell>
        <mxCell id="x90DHJJXEx7O0RzBIi9N-24" value="Gather" style="triangle;whiteSpace=wrap;html=1;sketch=1;" vertex="1" parent="1">
          <mxGeometry x="-70" y="340" width="45" height="65" as="geometry" />
        </mxCell>
        <mxCell id="x90DHJJXEx7O0RzBIi9N-26" value="" style="edgeStyle=orthogonalEdgeStyle;rounded=0;sketch=1;orthogonalLoop=1;jettySize=auto;html=1;" edge="1" parent="1" source="x90DHJJXEx7O0RzBIi9N-27" target="x90DHJJXEx7O0RzBIi9N-29">
          <mxGeometry relative="1" as="geometry" />
        </mxCell>
        <mxCell id="x90DHJJXEx7O0RzBIi9N-71" style="edgeStyle=orthogonalEdgeStyle;rounded=0;sketch=1;orthogonalLoop=1;jettySize=auto;html=1;exitX=0.5;exitY=1;exitDx=0;exitDy=0;entryX=0.5;entryY=0;entryDx=0;entryDy=0;" edge="1" parent="1" source="x90DHJJXEx7O0RzBIi9N-27" target="x90DHJJXEx7O0RzBIi9N-45">
          <mxGeometry relative="1" as="geometry" />
        </mxCell>
        <mxCell id="x90DHJJXEx7O0RzBIi9N-27" value="卷积" style="rounded=1;whiteSpace=wrap;html=1;sketch=1;" vertex="1" parent="1">
          <mxGeometry x="20" y="352.5" width="70" height="40" as="geometry" />
        </mxCell>
        <mxCell id="x90DHJJXEx7O0RzBIi9N-28" value="" style="edgeStyle=orthogonalEdgeStyle;rounded=0;sketch=1;orthogonalLoop=1;jettySize=auto;html=1;" edge="1" parent="1" source="x90DHJJXEx7O0RzBIi9N-29" target="x90DHJJXEx7O0RzBIi9N-31">
          <mxGeometry relative="1" as="geometry" />
        </mxCell>
        <mxCell id="x90DHJJXEx7O0RzBIi9N-29" value="LSTM" style="rhombus;whiteSpace=wrap;html=1;rounded=1;sketch=1;" vertex="1" parent="1">
          <mxGeometry x="120" y="332.5" width="80" height="80" as="geometry" />
        </mxCell>
        <mxCell id="x90DHJJXEx7O0RzBIi9N-69" style="edgeStyle=orthogonalEdgeStyle;rounded=0;sketch=1;orthogonalLoop=1;jettySize=auto;html=1;exitX=1;exitY=0.5;exitDx=0;exitDy=0;entryX=0.5;entryY=1;entryDx=0;entryDy=0;" edge="1" parent="1" source="x90DHJJXEx7O0RzBIi9N-31" target="x90DHJJXEx7O0RzBIi9N-11">
          <mxGeometry relative="1" as="geometry" />
        </mxCell>
        <mxCell id="x90DHJJXEx7O0RzBIi9N-31" value="上采样" style="shape=hexagon;perimeter=hexagonPerimeter2;whiteSpace=wrap;html=1;fixedSize=1;rounded=1;sketch=1;" vertex="1" parent="1">
          <mxGeometry x="230" y="345" width="90" height="55" as="geometry" />
        </mxCell>
        <mxCell id="x90DHJJXEx7O0RzBIi9N-42" style="edgeStyle=orthogonalEdgeStyle;rounded=0;sketch=1;orthogonalLoop=1;jettySize=auto;html=1;entryX=0;entryY=0.5;entryDx=0;entryDy=0;" edge="1" parent="1" source="x90DHJJXEx7O0RzBIi9N-43" target="x90DHJJXEx7O0RzBIi9N-45">
          <mxGeometry relative="1" as="geometry" />
        </mxCell>
        <mxCell id="x90DHJJXEx7O0RzBIi9N-43" value="Gather" style="triangle;whiteSpace=wrap;html=1;sketch=1;" vertex="1" parent="1">
          <mxGeometry x="-70" y="437.5" width="45" height="65" as="geometry" />
        </mxCell>
        <mxCell id="x90DHJJXEx7O0RzBIi9N-44" value="" style="edgeStyle=orthogonalEdgeStyle;rounded=0;sketch=1;orthogonalLoop=1;jettySize=auto;html=1;" edge="1" parent="1" source="x90DHJJXEx7O0RzBIi9N-45" target="x90DHJJXEx7O0RzBIi9N-47">
          <mxGeometry relative="1" as="geometry" />
        </mxCell>
        <mxCell id="x90DHJJXEx7O0RzBIi9N-72" style="edgeStyle=orthogonalEdgeStyle;rounded=0;sketch=1;orthogonalLoop=1;jettySize=auto;html=1;exitX=0.5;exitY=1;exitDx=0;exitDy=0;entryX=0.5;entryY=0;entryDx=0;entryDy=0;" edge="1" parent="1" source="x90DHJJXEx7O0RzBIi9N-45" target="x90DHJJXEx7O0RzBIi9N-52">
          <mxGeometry relative="1" as="geometry" />
        </mxCell>
        <mxCell id="x90DHJJXEx7O0RzBIi9N-45" value="卷积" style="rounded=1;whiteSpace=wrap;html=1;sketch=1;" vertex="1" parent="1">
          <mxGeometry x="20" y="450" width="70" height="40" as="geometry" />
        </mxCell>
        <mxCell id="x90DHJJXEx7O0RzBIi9N-46" value="" style="edgeStyle=orthogonalEdgeStyle;rounded=0;sketch=1;orthogonalLoop=1;jettySize=auto;html=1;" edge="1" parent="1" source="x90DHJJXEx7O0RzBIi9N-47" target="x90DHJJXEx7O0RzBIi9N-48">
          <mxGeometry relative="1" as="geometry" />
        </mxCell>
        <mxCell id="x90DHJJXEx7O0RzBIi9N-47" value="LSTM" style="rhombus;whiteSpace=wrap;html=1;rounded=1;sketch=1;" vertex="1" parent="1">
          <mxGeometry x="120" y="430" width="80" height="80" as="geometry" />
        </mxCell>
        <mxCell id="x90DHJJXEx7O0RzBIi9N-68" style="edgeStyle=orthogonalEdgeStyle;rounded=0;sketch=1;orthogonalLoop=1;jettySize=auto;html=1;exitX=0.5;exitY=0;exitDx=0;exitDy=0;entryX=0.5;entryY=1;entryDx=0;entryDy=0;" edge="1" parent="1" source="x90DHJJXEx7O0RzBIi9N-48" target="x90DHJJXEx7O0RzBIi9N-31">
          <mxGeometry relative="1" as="geometry" />
        </mxCell>
        <mxCell id="x90DHJJXEx7O0RzBIi9N-48" value="上采样" style="shape=hexagon;perimeter=hexagonPerimeter2;whiteSpace=wrap;html=1;fixedSize=1;rounded=1;sketch=1;" vertex="1" parent="1">
          <mxGeometry x="230" y="442.5" width="90" height="55" as="geometry" />
        </mxCell>
        <mxCell id="x90DHJJXEx7O0RzBIi9N-49" style="edgeStyle=orthogonalEdgeStyle;rounded=0;sketch=1;orthogonalLoop=1;jettySize=auto;html=1;entryX=0;entryY=0.5;entryDx=0;entryDy=0;" edge="1" parent="1" source="x90DHJJXEx7O0RzBIi9N-50" target="x90DHJJXEx7O0RzBIi9N-52">
          <mxGeometry relative="1" as="geometry" />
        </mxCell>
        <mxCell id="x90DHJJXEx7O0RzBIi9N-50" value="Gather" style="triangle;whiteSpace=wrap;html=1;sketch=1;" vertex="1" parent="1">
          <mxGeometry x="-70" y="537.5" width="45" height="65" as="geometry" />
        </mxCell>
        <mxCell id="x90DHJJXEx7O0RzBIi9N-51" value="" style="edgeStyle=orthogonalEdgeStyle;rounded=0;sketch=1;orthogonalLoop=1;jettySize=auto;html=1;" edge="1" parent="1" source="x90DHJJXEx7O0RzBIi9N-52" target="x90DHJJXEx7O0RzBIi9N-54">
          <mxGeometry relative="1" as="geometry" />
        </mxCell>
        <mxCell id="x90DHJJXEx7O0RzBIi9N-73" style="edgeStyle=orthogonalEdgeStyle;rounded=0;sketch=1;orthogonalLoop=1;jettySize=auto;html=1;exitX=0.5;exitY=1;exitDx=0;exitDy=0;" edge="1" parent="1" source="x90DHJJXEx7O0RzBIi9N-52" target="x90DHJJXEx7O0RzBIi9N-59">
          <mxGeometry relative="1" as="geometry" />
        </mxCell>
        <mxCell id="x90DHJJXEx7O0RzBIi9N-52" value="卷积" style="rounded=1;whiteSpace=wrap;html=1;sketch=1;" vertex="1" parent="1">
          <mxGeometry x="20" y="550" width="70" height="40" as="geometry" />
        </mxCell>
        <mxCell id="x90DHJJXEx7O0RzBIi9N-53" value="" style="edgeStyle=orthogonalEdgeStyle;rounded=0;sketch=1;orthogonalLoop=1;jettySize=auto;html=1;" edge="1" parent="1" source="x90DHJJXEx7O0RzBIi9N-54" target="x90DHJJXEx7O0RzBIi9N-55">
          <mxGeometry relative="1" as="geometry" />
        </mxCell>
        <mxCell id="x90DHJJXEx7O0RzBIi9N-54" value="LSTM" style="rhombus;whiteSpace=wrap;html=1;rounded=1;sketch=1;" vertex="1" parent="1">
          <mxGeometry x="120" y="530" width="80" height="80" as="geometry" />
        </mxCell>
        <mxCell id="x90DHJJXEx7O0RzBIi9N-67" style="edgeStyle=orthogonalEdgeStyle;rounded=0;sketch=1;orthogonalLoop=1;jettySize=auto;html=1;exitX=0.5;exitY=0;exitDx=0;exitDy=0;entryX=0.5;entryY=1;entryDx=0;entryDy=0;" edge="1" parent="1" source="x90DHJJXEx7O0RzBIi9N-55" target="x90DHJJXEx7O0RzBIi9N-48">
          <mxGeometry relative="1" as="geometry" />
        </mxCell>
        <mxCell id="x90DHJJXEx7O0RzBIi9N-55" value="上采样" style="shape=hexagon;perimeter=hexagonPerimeter2;whiteSpace=wrap;html=1;fixedSize=1;rounded=1;sketch=1;" vertex="1" parent="1">
          <mxGeometry x="230" y="542.5" width="90" height="55" as="geometry" />
        </mxCell>
        <mxCell id="x90DHJJXEx7O0RzBIi9N-56" style="edgeStyle=orthogonalEdgeStyle;rounded=0;sketch=1;orthogonalLoop=1;jettySize=auto;html=1;entryX=0;entryY=0.5;entryDx=0;entryDy=0;" edge="1" parent="1" source="x90DHJJXEx7O0RzBIi9N-57" target="x90DHJJXEx7O0RzBIi9N-59">
          <mxGeometry relative="1" as="geometry" />
        </mxCell>
        <mxCell id="x90DHJJXEx7O0RzBIi9N-57" value="Gather" style="triangle;whiteSpace=wrap;html=1;sketch=1;" vertex="1" parent="1">
          <mxGeometry x="-70" y="617.5" width="45" height="65" as="geometry" />
        </mxCell>
        <mxCell id="x90DHJJXEx7O0RzBIi9N-58" value="" style="edgeStyle=orthogonalEdgeStyle;rounded=0;sketch=1;orthogonalLoop=1;jettySize=auto;html=1;" edge="1" parent="1" source="x90DHJJXEx7O0RzBIi9N-59" target="x90DHJJXEx7O0RzBIi9N-61">
          <mxGeometry relative="1" as="geometry" />
        </mxCell>
        <mxCell id="x90DHJJXEx7O0RzBIi9N-59" value="卷积" style="rounded=1;whiteSpace=wrap;html=1;sketch=1;" vertex="1" parent="1">
          <mxGeometry x="20" y="630" width="70" height="40" as="geometry" />
        </mxCell>
        <mxCell id="x90DHJJXEx7O0RzBIi9N-60" value="" style="edgeStyle=orthogonalEdgeStyle;rounded=0;sketch=1;orthogonalLoop=1;jettySize=auto;html=1;" edge="1" parent="1" source="x90DHJJXEx7O0RzBIi9N-61" target="x90DHJJXEx7O0RzBIi9N-62">
          <mxGeometry relative="1" as="geometry" />
        </mxCell>
        <mxCell id="x90DHJJXEx7O0RzBIi9N-61" value="LSTM" style="rhombus;whiteSpace=wrap;html=1;rounded=1;sketch=1;" vertex="1" parent="1">
          <mxGeometry x="120" y="610" width="80" height="80" as="geometry" />
        </mxCell>
        <mxCell id="x90DHJJXEx7O0RzBIi9N-66" style="edgeStyle=orthogonalEdgeStyle;rounded=0;sketch=1;orthogonalLoop=1;jettySize=auto;html=1;exitX=0.5;exitY=0;exitDx=0;exitDy=0;entryX=0.5;entryY=1;entryDx=0;entryDy=0;" edge="1" parent="1" source="x90DHJJXEx7O0RzBIi9N-62" target="x90DHJJXEx7O0RzBIi9N-55">
          <mxGeometry relative="1" as="geometry" />
        </mxCell>
        <mxCell id="x90DHJJXEx7O0RzBIi9N-62" value="上采样" style="shape=hexagon;perimeter=hexagonPerimeter2;whiteSpace=wrap;html=1;fixedSize=1;rounded=1;sketch=1;" vertex="1" parent="1">
          <mxGeometry x="230" y="622.5" width="90" height="55" as="geometry" />
        </mxCell>
      </root>
    </mxGraphModel>
  </diagram>
</mxfile>
